<svg viewBox="0 0 72 72" xmlns="http://www.w3.org/2000/svg"><circle cx="33.8525" cy="37.5908" fill="#d0cfce" r="4.9999"/><path d="m33.8524 27.5907c-2.1024 0-5.0159 1.4642-6.5495 2.6766 0 0 .9658 1.2952.6406 1.6224-.3262.3271-1.3249.369-1.3249.369-1.1046 1.4944-2.4297 3.3352-2.4297 5.3321 0 4.9629 4.9985 10.2978 9.9614 10.2978s9.7021-5.335 9.7021-10.2979-5.0371-10-10-10zm.0001 16.0001c-3.3086 0-6-2.6914-6-6s2.6914-6 6-6 6 2.6914 6 6-2.6914 6-6 6z" fill="#3f3f3f"/><path d="m11.5175 21.918h-.3823v2.2939l1.314-1.5288z" fill="#fff"/><path d="m57.6608 21.918h-.7301c.2793 0 .5516.029.8155.0808z" fill="#fff"/><path d="m12.126 32.1973h-.2558l.0591.0396c.0658-.0136.1269-.0396.1967-.0396z" fill="#9b9b9a"/><g fill="#fff"><path d="m27.5323 31.642-6.1309-3.6932-2.6515 4.7584c2.3713 2.2317 7.42-.4655 7.8561-.4137z"/><path d="m46.5034 33.9613c.1722.1404.3833.236.623.236h.0259c-.2509 0-.4734-.101-.6489-.2535z"/><path d="m28.8541 32.2935.0004-.0013z"/><path d="m29.4668 21.918h-4.7056l-2.2791 1.3437 4.3373 6.9754.5652.7418c1.1349-.8972 4.6418-2.4049 4.212-2.2579-.5185.1758 2.6106-1.0071 3.8303-1.0071 4.1438 0 6.3852 3.4308 6.3851 3.4308-.0047-.0106 1.1873 1.7282 1.1827 1.7177 0 0 3.6809-.5696 3.5087-.4292v.0175c.1755-.1525 1.5048.4117 1.7557.4117l12.0885-.2717-.9776-8.5374c0-1.1372-30.4559-2.1353-29.9032-2.1353z"/><path d="m28.9241 31.7396c-.005-.0331-.009-.0649-.0174-.0976.008.0323.0126.0648.0174.0976z"/><path d="m28.9333 31.9293c-.0017.0379-.0011.0759-.0072.1134.006-.0379.0057-.075.0072-.1134z"/><path d="m12.126 32.1973c.1259 0 .2444.0263.3543.069-.1094-.0434-.2279-.069-.3543-.069z"/><path d="m12.7675 32.445c-.0387-.0346-.086-.0561-.1298-.0842.0438.0276.0909.0501.1298.0842z"/><path d="m16.5613 32.6716-.7721-5.4771-4.654 1.8031v4.1286h.0051c.0332-.4485.4583.6813.8863.5908l2.6792-.5908s.54-.4548 1.8555-.4546z"/><path d="m13.126 33.0392-.0369-.0247c-.0045-.0237-.0183-.043-.0243-.066.0155.0595.0421.1144.0468.1777h.0144z"/><path d="m12.9756 32.7072c-.0144-.0261-.035-.0466-.0515-.0712.0166.0243.037.0454.0515.0712z"/></g><path d="m59.0742 51.7377c.0311-.0144 1.0036-1.113 1.0002-4.3976-.0052-5.0782 0-15.0175 0-15.0175s-13.5007-.1253-12.948-.1253h-3.6908c.0046.0105.0097.024.0144.0346.0001 0 0 0 .0001.0001.2193.3913-.7686.5787-.5976.9975 0 0 1.2496 2.3944.9999 5.5663s-2.8919 6.7518-5.5648 8.1018c-2.441 1.2329-2.1896.9902-4.9309.6931-2.7412-.2971-4.7834-.8471-6.2134-2.2769-.0809-.0809-1.2041-2.1166-1.7665-3.0153-1.2721-2.033-1.228-3.6201-1.1879-4.7077.0457-1.2387.796-1.7835 1.0592-2.8015.3098-1.1985 1.308-2.4241 1.3705-2.5306.0749-.1277-2.9171-.0406-6.1038-.0531l-5.1876-.0095c-1.3155-.0002-2.2012.0012-2.2012.0012h-1c.1289 0-.2778 18.333 0 18.3648.2867.0328 2.462 1.8319 3.9868 1.8497 10.1553.1187 42.9278-.6584 42.9614-.6741z" fill="#9b9b9a"/><path d="m17.1424 37.5907s3.5909-9.3438 3.8741-9.4459c.2841-.1035 5.8744 2.4323 5.8744 2.4323s-4.5214-7.4033-4.456-7.6641c.0655-.2612 7.7379-4.8892 7.7379-4.8892l-8.7435 2.0703c-.2832.0767-.7378-.0972-.7661-.3907l-1.7091-8.1953-2.691 8.0704c-.083.269-7.9333-2.1364-7.9333-2.1364l5.5443 5.1175c.208.1709-6.1709 7.6712-6.1709 7.6712l7.5566-3.0363c.1484-.0806 1.8826 10.3962 1.8826 10.3962z" fill="#f1b31c"/><path d="m12.1256 33.1975v16.0038c0 1.6912 1.4076 3.0623 3.1441 3.0623h41.6606c1.7365 0 3.1441-1.3711 3.1441-3.0623v-23.2213c0-1.6912-1.4076-3.0622-3.1441-3.0622h-27.4638" style="fill:none;stroke:#000;stroke-linecap:round;stroke-linejoin:round;stroke-miterlimit:10;stroke-width:2"/><path d="m47.1521 33.1975h12.4656" style="fill:none;stroke:#000;stroke-linecap:round;stroke-linejoin:round;stroke-miterlimit:10;stroke-width:2"/><path d="m30.6138 28.1268c1.0157-.3475 2.1051-.5361 3.2386-.5361 5.5229 0 10 4.4771 10 10 0 5.5228-4.4771 10-10 10-5.5228 0-10-4.4772-10-10 0-1.0285.1553-2.0207.4436-2.9544" style="fill:none;stroke:#000;stroke-linecap:round;stroke-linejoin:round;stroke-miterlimit:10;stroke-width:2"/><circle cx="33.8524" cy="37.5907" r="5" style="fill:none;stroke:#000;stroke-linecap:round;stroke-linejoin:round;stroke-miterlimit:10;stroke-width:2"/><path d="m13.8741 22.5596-8.2632 9.6129 10.1242-5.4757 1.3399 12.332 3.9455-11.3094 6.923 4.1703-5.5086-8.9767 9.4541-5.5134-11.613 3.1808-1.0421-10.6733-3.1266 10.1785-10.4964-4.3118z" style="fill:none;stroke:#000;stroke-linecap:round;stroke-linejoin:round;stroke-miterlimit:10;stroke-width:2"/></svg>